<svg id="Layer_1" enable-background="new 0 0 512 512" height="512" viewBox="0 0 512 512" width="512" xmlns="http://www.w3.org/2000/svg"><g><path d="m304.2 158.533h32.133c9.35 0 17.134 7.523 17.134 17.133v32.134c0 8.284 6.716 15 15 15s15-6.716 15-15v-32.133c0-26.63-21.7-47.133-47.134-47.133h-32.133c-9.367 0-17.134-7.542-17.134-17.133 0-9.447 7.687-17.133 17.134-17.133h96.4c25.499 0 47.134-20.551 47.134-47.149-.001-25.982-21.145-47.119-47.134-47.119-8.284 0-15 6.716-15 15s6.716 15 15 15c9.447 0 17.134 7.679 17.134 17.133 0 9.617-7.793 17.133-17.134 17.133h-96.4c-25.989 0-47.134 21.144-47.134 47.133 0 26.578 21.645 47.134 47.134 47.134z"/><path d="m432.733 257.067h-160.667c-8.284 0-15 6.716-15 15v34.267h190.667v-34.267c0-8.284-6.715-15-15-15z"/><path d="m128.533 242.067h94.267v-34.267c0-43.708-35.559-79.267-79.267-79.267h-64.266c-8.284 0-15 6.716-15 15s6.716 15 15 15c27.166 0 49.267 22.101 49.267 49.267v34.267z"/><path d="m257.066 368.467c0 9.447-7.686 17.133-17.133 17.133s-17.134-7.686-17.134-17.133v-96.4h-94.267v80.333c0 88.269 71.45 159.6 159.601 159.6 88.004 0 159.6-71.596 159.6-159.6v-16.066h-190.667z"/></g></svg>